<svg id="Layer_1" data-name="Layer 1" xmlns="http://www.w3.org/2000/svg" viewBox="0 0 303 112.1"><defs><style>.cls-1,.cls-12{fill:#fff;}.cls-1,.cls-10,.cls-11,.cls-13,.cls-14,.cls-2,.cls-3,.cls-4,.cls-5,.cls-6,.cls-7,.cls-8,.cls-9{stroke:#000;stroke-miterlimit:10;stroke-width:2px;}.cls-2{fill:#9fcaff;}.cls-3{fill:#9fcdff;}.cls-4{fill:#c8c8c8;}.cls-5{fill:#f4ff94;}.cls-6{fill:#7f95ff;}.cls-7{fill:#ff948a;}.cls-8{fill:#35ff62;}.cls-9{fill:#c07fff;}.cls-10{fill:#74edff;}.cls-11{fill:#ffa54a;}.cls-13{fill:#b7b7b7;}.cls-14{fill:#ff4a59;}.cls-15,.cls-17{isolation:isolate;}.cls-15,.cls-16{font-size:10px;font-family:Consolas-Bold, Consolas;font-weight:700;}</style></defs><title>vortex-keyboard</title><path d="M291.4,4.3c4.3,0,7.9,4,7.9,9V98.8c0,4.9-3.5,9-7.9,9H11.6c-4.3,0-7.9-4-7.9-9V13.3c0-4.9,3.5-9,7.9-9H291.4m0-4.3H11.6C5.2,0,0,6,0,13.3H0V98.8c0,7.3,5.2,13.3,11.6,13.3H291.4c6.4,0,11.6-5.9,11.6-13.3V13.3C303,6,297.8,0,291.4,0Z" transform="translate(0 0)"/><path class="cls-1" d="M31.5,67.8H11.3a.79.79,0,0,1-.8-.78V57.2a.79.79,0,0,1,.78-.8H31.5a.79.79,0,0,1,.8.78V67A.86.86,0,0,1,31.5,67.8Z" transform="translate(0 0)"/><path class="cls-1" d="M27.2,51.7H11.3a.79.79,0,0,1-.8-.78V41.1a.79.79,0,0,1,.78-.8H27.2a.79.79,0,0,1,.8.78V50.9A.86.86,0,0,1,27.2,51.7Z" transform="translate(0 0)"/><path class="cls-1" d="M21,35.6H11.3a.79.79,0,0,1-.8-.78V25a.79.79,0,0,1,.78-.8H21a.79.79,0,0,1,.8.78V34.8C21.9,35.3,21.5,35.6,21,35.6Z" transform="translate(0 0)"/><path class="cls-1" d="M21,19.9H11.3c-.5,0-.8-.3-.8-.5V12.9c0-.3.4-.5.8-.5H21c.5,0,.8.3.8.5v6.5C21.9,19.7,21.5,19.9,21,19.9Z" transform="translate(0 0)"/><path class="cls-1" d="M44.2,19.9H34.4c-.5,0-.8-.3-.8-.5V12.9c0-.3.4-.5.8-.5h9.8c.5,0,.8.3.8.5v6.5C45,19.7,44.6,19.9,44.2,19.9Z" transform="translate(0 0)"/><path class="cls-1" d="M60.3,19.9H50.5c-.5,0-.8-.3-.8-.5V12.9c0-.3.4-.5.8-.5h9.8c.5,0,.8.3.8.5v6.5C61.2,19.7,60.8,19.9,60.3,19.9Z" transform="translate(0 0)"/><path class="cls-1" d="M76.3,19.9H66.5c-.5,0-.8-.3-.8-.5V12.9c0-.3.4-.5.8-.5h9.8c.5,0,.8.3.8.5v6.5C77.2,19.7,76.8,19.9,76.3,19.9Z" transform="translate(0 0)"/><path class="cls-1" d="M92.5,19.9H82.7c-.5,0-.8-.3-.8-.5V12.9c0-.3.4-.5.8-.5h9.8c.5,0,.8.3.8.5v6.5C93.3,19.7,93,19.9,92.5,19.9Z" transform="translate(0 0)"/><path class="cls-2" d="M37.2,35.6H27.4a.79.79,0,0,1-.8-.78V25a.79.79,0,0,1,.78-.8H37.2A.79.79,0,0,1,38,25V34.8a.79.79,0,0,1-.78.8Z" transform="translate(0 0)"/><path class="cls-3" d="M53.2,35.6H43.4a.79.79,0,0,1-.8-.78V25a.79.79,0,0,1,.78-.8H53.2A.79.79,0,0,1,54,25V34.8a.79.79,0,0,1-.78.8Z" transform="translate(0 0)"/><path class="cls-3" d="M69,35.6H59.3a.79.79,0,0,1-.8-.78V25a.79.79,0,0,1,.78-.8H69a.79.79,0,0,1,.8.78V34.8C69.9,35.3,69.5,35.6,69,35.6Z" transform="translate(0 0)"/><path class="cls-3" d="M84.8,35.6H75a.79.79,0,0,1-.8-.78V25a.79.79,0,0,1,.78-.8H84.8a.79.79,0,0,1,.8.78V34.8a.74.74,0,0,1-.67.8Z" transform="translate(0 0)"/><path class="cls-3" d="M100.5,35.6H90.7a.79.79,0,0,1-.8-.78V25a.79.79,0,0,1,.78-.8h9.82a.79.79,0,0,1,.8.78V34.8a.74.74,0,0,1-.67.8Z" transform="translate(0 0)"/><path class="cls-3" d="M116.2,35.6h-9.8a.79.79,0,0,1-.8-.78V25a.79.79,0,0,1,.78-.8h9.82a.79.79,0,0,1,.8.78V34.8a.74.74,0,0,1-.67.8Z" transform="translate(0 0)"/><path class="cls-1" d="M42.9,51.7H33.1a.79.79,0,0,1-.8-.78V41.1a.79.79,0,0,1,.78-.8H42.9a.79.79,0,0,1,.8.78V50.9A.86.86,0,0,1,42.9,51.7Z" transform="translate(0 0)"/><path class="cls-1" d="M58.9,51.7H49.1a.79.79,0,0,1-.8-.78V41.1a.79.79,0,0,1,.78-.8H58.9a.79.79,0,0,1,.8.78V50.9A.86.86,0,0,1,58.9,51.7Z" transform="translate(0 0)"/><path class="cls-1" d="M74.8,51.7H65a.79.79,0,0,1-.8-.78V41.1a.79.79,0,0,1,.78-.8H74.8a.79.79,0,0,1,.8.78V50.9A.86.86,0,0,1,74.8,51.7Z" transform="translate(0 0)"/><path class="cls-1" d="M90.5,51.7H80.7a.79.79,0,0,1-.8-.78V41.1a.79.79,0,0,1,.78-.8H90.5a.79.79,0,0,1,.8.78V50.9a.79.79,0,0,1-.78.8Z" transform="translate(0 0)"/><path class="cls-4" d="M106.2,51.7H96.4a.79.79,0,0,1-.8-.78V41.1a.79.79,0,0,1,.78-.8h9.82a.79.79,0,0,1,.8.78V50.9a.79.79,0,0,1-.78.8Z" transform="translate(0 0)"/><path class="cls-5" d="M121.9,51.7h-9.8a.79.79,0,0,1-.8-.78V41.1a.79.79,0,0,1,.78-.8h9.82a.79.79,0,0,1,.8.78V50.9C122.8,51.3,122.4,51.7,121.9,51.7Z" transform="translate(0 0)"/><path class="cls-1" d="M47.8,67.8H38a.79.79,0,0,1-.8-.78V57.2a.79.79,0,0,1,.78-.8H47.8a.79.79,0,0,1,.8.78V67A.86.86,0,0,1,47.8,67.8Z" transform="translate(0 0)"/><path class="cls-1" d="M63.8,67.8H54a.79.79,0,0,1-.8-.78V57.2a.79.79,0,0,1,.78-.8H63.8a.79.79,0,0,1,.8.78V67A.86.86,0,0,1,63.8,67.8Z" transform="translate(0 0)"/><path class="cls-4" d="M79.6,67.8H69.8A.79.79,0,0,1,69,67V57.2a.79.79,0,0,1,.78-.8H79.6a.79.79,0,0,1,.8.78V67C80.5,67.4,80.1,67.8,79.6,67.8Z" transform="translate(0 0)"/><path class="cls-6" d="M95.4,67.8H85.6a.79.79,0,0,1-.8-.78V57.2a.79.79,0,0,1,.78-.8H95.4a.79.79,0,0,1,.8.78V67A.86.86,0,0,1,95.4,67.8Z" transform="translate(0 0)"/><path class="cls-7" d="M111.1,67.8h-9.8a.79.79,0,0,1-.8-.78V57.2a.79.79,0,0,1,.78-.8h9.82a.79.79,0,0,1,.8.78V67A.86.86,0,0,1,111.1,67.8Z" transform="translate(0 0)"/><path class="cls-8" d="M126.8,67.8H117a.79.79,0,0,1-.8-.78V57.2a.79.79,0,0,1,.78-.8h9.82a.79.79,0,0,1,.8.78V67a.79.79,0,0,1-.78.8Z" transform="translate(0 0)"/><path class="cls-1" d="M158,100.6H72.3a.71.71,0,0,1-.71-.71s0-.06,0-.09V90a.77.77,0,0,1,.7-.8H158a.71.71,0,0,1,.71.71s0,.06,0,.09v9.8A.77.77,0,0,1,158,100.6Z" transform="translate(0 0)"/><path class="cls-9" d="M142.3,67.8h-9.8a.79.79,0,0,1-.8-.78V57.2a.79.79,0,0,1,.78-.8h9.82a.79.79,0,0,1,.8.78V67a.79.79,0,0,1-.78.8Z" transform="translate(0 0)"/><path class="cls-10" d="M158,67.8h-9.8a.79.79,0,0,1-.8-.78V57.2a.79.79,0,0,1,.78-.8H158a.79.79,0,0,1,.8.78V67C158.9,67.4,158.5,67.8,158,67.8Z" transform="translate(0 0)"/><path class="cls-11" d="M173.8,67.8H164a.79.79,0,0,1-.8-.78V57.2a.79.79,0,0,1,.78-.8h9.82a.79.79,0,0,1,.8.78V67A.86.86,0,0,1,173.8,67.8Z" transform="translate(0 0)"/><path class="cls-1" d="M189.5,67.8h-9.8a.79.79,0,0,1-.8-.78V57.2a.79.79,0,0,1,.78-.8h9.82a.79.79,0,0,1,.8.78V67A.86.86,0,0,1,189.5,67.8Z" transform="translate(0 0)"/><rect class="cls-12" x="152.8" y="44.9" width="7" height="7"/><path class="cls-7" d="M137.7,51.6H128a.79.79,0,0,1-.8-.78V41a.79.79,0,0,1,.78-.8h9.82a.79.79,0,0,1,.8.78V50.8A.88.88,0,0,1,137.7,51.6Z" transform="translate(0 0)"/><path class="cls-9" d="M153.7,51.6H144a.79.79,0,0,1-.8-.78V41a.79.79,0,0,1,.78-.8h9.82a.79.79,0,0,1,.8.78V50.8A.88.88,0,0,1,153.7,51.6Z" transform="translate(0 0)"/><path class="cls-10" d="M169.6,51.6h-9.8a.79.79,0,0,1-.8-.78V41a.79.79,0,0,1,.78-.8h9.82a.79.79,0,0,1,.8.78V50.8a.79.79,0,0,1-.78.8Z" transform="translate(0 0)"/><path class="cls-11" d="M185.3,51.6h-9.8a.79.79,0,0,1-.8-.78V41a.79.79,0,0,1,.78-.8h9.82a.79.79,0,0,1,.8.78V50.8C186.2,51.2,185.8,51.6,185.3,51.6Z" transform="translate(0 0)"/><path class="cls-1" d="M201.1,51.6h-9.8a.79.79,0,0,1-.8-.78V41a.79.79,0,0,1,.78-.8h9.82a.79.79,0,0,1,.8.78V50.8A.86.86,0,0,1,201.1,51.6Z" transform="translate(0 0)"/><path class="cls-1" d="M216.8,51.6H207a.79.79,0,0,1-.8-.78V41a.79.79,0,0,1,.78-.8h9.82a.79.79,0,0,1,.8.78V50.8A.86.86,0,0,1,216.8,51.6Z" transform="translate(0 0)"/><path class="cls-1" d="M238.2,84.1H203.6a.79.79,0,0,1-.8-.78V73.5a.79.79,0,0,1,.78-.8H238.2a.79.79,0,0,1,.8.78V83.3A.86.86,0,0,1,238.2,84.1Z" transform="translate(0 0)"/><path class="cls-1" d="M259.2,100.1h-9.8a.79.79,0,0,1-.8-.78V89.5a.79.79,0,0,1,.78-.8h9.82a.79.79,0,0,1,.8.78V99.3a.79.79,0,0,1-.78.8Z" transform="translate(0 0)"/><path class="cls-1" d="M275,100.1h-9.8a.79.79,0,0,1-.8-.78V89.5a.79.79,0,0,1,.78-.8H275a.79.79,0,0,1,.8.78V99.3C275.9,99.7,275.5,100.1,275,100.1Z" transform="translate(0 0)"/><path class="cls-1" d="M275,83.8h-9.8a.79.79,0,0,1-.8-.78V73.2a.79.79,0,0,1,.78-.8H275a.79.79,0,0,1,.8.78V83C275.9,83.4,275.5,83.8,275,83.8Z" transform="translate(0 0)"/><path class="cls-1" d="M290.8,100.1H281a.79.79,0,0,1-.8-.78V89.5a.79.79,0,0,1,.78-.8h9.82a.79.79,0,0,1,.8.78V99.3C291.7,99.7,291.3,100.1,290.8,100.1Z" transform="translate(0 0)"/><path class="cls-3" d="M131.9,35.6h-9.8a.79.79,0,0,1-.8-.78V25a.79.79,0,0,1,.78-.8h9.82a.79.79,0,0,1,.8.78V34.8a.79.79,0,0,1-.78.8Z" transform="translate(0 0)"/><path class="cls-1" d="M148,35.6h-9.8a.79.79,0,0,1-.8-.78V25a.79.79,0,0,1,.78-.8H148a.79.79,0,0,1,.8.78V34.8a.74.74,0,0,1-.67.8Z" transform="translate(0 0)"/><path class="cls-1" d="M164,35.6h-9.8a.79.79,0,0,1-.8-.78V25a.79.79,0,0,1,.78-.8H164a.79.79,0,0,1,.8.78V34.8a.74.74,0,0,1-.67.8Z" transform="translate(0 0)"/><path class="cls-1" d="M179.9,35.6h-9.8a.79.79,0,0,1-.8-.78V25a.79.79,0,0,1,.78-.8h9.82a.79.79,0,0,1,.8.78V34.8a.79.79,0,0,1-.78.8Z" transform="translate(0 0)"/><path class="cls-1" d="M195.6,35.6h-9.8a.79.79,0,0,1-.8-.78V25a.79.79,0,0,1,.78-.8h9.82a.79.79,0,0,1,.8.78V34.8C196.5,35.3,196.1,35.6,195.6,35.6Z" transform="translate(0 0)"/><path class="cls-1" d="M211.3,35.6h-9.8a.79.79,0,0,1-.8-.78V25a.79.79,0,0,1,.78-.8h9.82a.79.79,0,0,1,.8.78V34.8C212.2,35.3,211.8,35.6,211.3,35.6Z" transform="translate(0 0)"/><path class="cls-1" d="M37.6,84.1H11.3a.79.79,0,0,1-.8-.78V73.5a.79.79,0,0,1,.78-.8H37.7a.79.79,0,0,1,.8.78V83.3A.88.88,0,0,1,37.6,84.1Z" transform="translate(0 0)"/><path class="cls-13" d="M53.6,84.1H43.8a.79.79,0,0,1-.8-.78V73.5a.79.79,0,0,1,.78-.8H53.6a.79.79,0,0,1,.8.78V83.3C54.5,83.7,54.1,84.1,53.6,84.1Z" transform="translate(0 0)"/><path class="cls-4" d="M69.5,84.1H59.7a.79.79,0,0,1-.8-.78V73.5a.79.79,0,0,1,.78-.8H69.5a.79.79,0,0,1,.8.78V83.3C70.4,83.7,70,84.1,69.5,84.1Z" transform="translate(0 0)"/><path class="cls-14" d="M85.3,84.1H75.5a.79.79,0,0,1-.8-.78V73.5a.79.79,0,0,1,.78-.8H85.3a.79.79,0,0,1,.8.78V83.3A.86.86,0,0,1,85.3,84.1Z" transform="translate(0 0)"/><path class="cls-1" d="M101,84.1H91.2a.79.79,0,0,1-.8-.78V73.5a.79.79,0,0,1,.78-.8H101a.79.79,0,0,1,.8.78V83.3A.86.86,0,0,1,101,84.1Z" transform="translate(0 0)"/><path class="cls-1" d="M116.7,84.1h-9.8a.79.79,0,0,1-.8-.78V73.5a.79.79,0,0,1,.78-.8h9.82a.79.79,0,0,1,.8.78V83.3A.86.86,0,0,1,116.7,84.1Z" transform="translate(0 0)"/><path class="cls-1" d="M132.2,84.1h-9.8a.79.79,0,0,1-.8-.78V73.5a.79.79,0,0,1,.78-.8h9.82a.79.79,0,0,1,.8.78V83.3A.86.86,0,0,1,132.2,84.1Z" transform="translate(0 0)"/><path class="cls-1" d="M147.9,84.1h-9.8a.79.79,0,0,1-.8-.78V73.5a.79.79,0,0,1,.78-.8h9.82a.79.79,0,0,1,.8.78V83.3C148.8,83.7,148.4,84.1,147.9,84.1Z" transform="translate(0 0)"/><path class="cls-1" d="M163.6,84.1h-9.8a.79.79,0,0,1-.8-.78V73.5a.79.79,0,0,1,.78-.8h9.82a.79.79,0,0,1,.8.78V83.3C164.5,83.7,164.1,84.1,163.6,84.1Z" transform="translate(0 0)"/><path class="cls-1" d="M179.4,84.1h-9.8a.79.79,0,0,1-.8-.78V73.5a.79.79,0,0,1,.78-.8h9.82a.79.79,0,0,1,.8.78V83.3A.86.86,0,0,1,179.4,84.1Z" transform="translate(0 0)"/><path class="cls-1" d="M195.4,84.1h-9.8a.79.79,0,0,1-.8-.78V73.5a.79.79,0,0,1,.78-.8h9.82a.79.79,0,0,1,.8.78V83.3A.86.86,0,0,1,195.4,84.1Z" transform="translate(0 0)"/><path class="cls-1" d="M110.7,19.9h-9.8c-.5,0-.8-.3-.8-.5V12.9c0-.3.4-.5.8-.5h9.8c.5,0,.8.3.8.5v6.5C111.5,19.7,111.1,19.9,110.7,19.9Z" transform="translate(0 0)"/><path class="cls-1" d="M126.8,19.9H117c-.5,0-.8-.3-.8-.5V12.9c0-.3.4-.5.8-.5h9.8c.5,0,.8.3.8.5v6.5C127.7,19.7,127.3,19.9,126.8,19.9Z" transform="translate(0 0)"/><path class="cls-1" d="M142.8,19.9H133c-.5,0-.8-.3-.8-.5V12.9c0-.3.4-.5.8-.5h9.8c.5,0,.8.3.8.5v6.5C143.7,19.7,143.3,19.9,142.8,19.9Z" transform="translate(0 0)"/><path class="cls-1" d="M159,19.9h-9.8c-.5,0-.8-.3-.8-.5V12.9c0-.3.4-.5.8-.5H159c.5,0,.8.3.8.5v6.5C159.8,19.7,159.5,19.9,159,19.9Z" transform="translate(0 0)"/><path class="cls-1" d="M177.4,19.9h-9.8c-.5,0-.8-.3-.8-.5V12.9c0-.3.4-.5.8-.5h9.8c.5,0,.8.3.8.5v6.5C178.3,19.7,177.9,19.9,177.4,19.9Z" transform="translate(0 0)"/><path class="cls-1" d="M193.6,19.9h-9.8c-.5,0-.8-.3-.8-.5V12.9c0-.3.4-.5.8-.5h9.8c.5,0,.8.3.8.5v6.5C194.4,19.7,194,19.9,193.6,19.9Z" transform="translate(0 0)"/><path class="cls-1" d="M209.6,19.9h-9.8c-.5,0-.8-.3-.8-.5V12.9c0-.3.4-.5.8-.5h9.8c.5,0,.8.3.8.5v6.5C210.4,19.7,210,19.9,209.6,19.9Z" transform="translate(0 0)"/><path class="cls-1" d="M225.8,19.9H216c-.5,0-.8-.3-.8-.5V12.9c0-.3.4-.5.8-.5h9.8c.5,0,.8.3.8.5v6.5C226.6,19.7,226.2,19.9,225.8,19.9Z" transform="translate(0 0)"/><path class="cls-1" d="M259.2,51.6h-9.8a.79.79,0,0,1-.8-.78V41a.79.79,0,0,1,.78-.8h9.82a.79.79,0,0,1,.8.78V50.8C260.1,51.2,259.7,51.6,259.2,51.6Z" transform="translate(0 0)"/><path class="cls-1" d="M275.1,51.6h-9.8a.79.79,0,0,1-.8-.78V41a.79.79,0,0,1,.78-.8h9.82a.79.79,0,0,1,.8.78V50.8A.86.86,0,0,1,275.1,51.6Z" transform="translate(0 0)"/><path class="cls-1" d="M290.8,51.6H281a.79.79,0,0,1-.8-.78V41a.79.79,0,0,1,.78-.8h9.82a.79.79,0,0,1,.8.78V50.8C291.7,51.2,291.3,51.6,290.8,51.6Z" transform="translate(0 0)"/><path class="cls-1" d="M259.3,35.6h-9.7a.79.79,0,0,1-.8-.78V25a.79.79,0,0,1,.78-.8h9.72a.79.79,0,0,1,.8.78V34.8a.79.79,0,0,1-.78.8Z" transform="translate(0 0)"/><path class="cls-1" d="M275.1,35.6h-9.8a.79.79,0,0,1-.8-.78V25a.79.79,0,0,1,.78-.8h9.82a.79.79,0,0,1,.8.78V34.8a.74.74,0,0,1-.67.8Z" transform="translate(0 0)"/><path class="cls-1" d="M290.9,35.6h-9.8a.79.79,0,0,1-.8-.78V25a.79.79,0,0,1,.78-.8h9.82a.79.79,0,0,1,.8.78V34.8a.79.79,0,0,1-.78.8Z" transform="translate(0 0)"/><path class="cls-1" d="M259.2,19.9h-9.8c-.5,0-.8-.3-.8-.5V12.9c0-.3.4-.5.8-.5h9.8c.5,0,.8.3.8.5v6.5C260.1,19.7,259.7,19.9,259.2,19.9Z" transform="translate(0 0)"/><path class="cls-1" d="M275.1,19.9h-9.8c-.5,0-.8-.3-.8-.5V12.9c0-.3.4-.5.8-.5h9.8c.5,0,.8.3.8.5v6.5C275.9,19.7,275.5,19.9,275.1,19.9Z" transform="translate(0 0)"/><path class="cls-1" d="M290.8,19.9H281c-.5,0-.8-.3-.8-.5V12.9c0-.3.4-.5.8-.5h9.8c.5,0,.8.3.8.5v6.5C291.7,19.7,291.3,19.9,290.8,19.9Z" transform="translate(0 0)"/><path class="cls-1" d="M205,67.9h-9.8a.79.79,0,0,1-.8-.78V57.3a.79.79,0,0,1,.78-.8H205a.79.79,0,0,1,.8.78V67a.83.83,0,0,1-.74.9Z" transform="translate(0 0)"/><path class="cls-1" d="M236.7,67.9H212.2c-1.3,0-2-.4-2-.8V57.3c0-.5,1-.8,2-.8H237c1.3,0,2,.4,2,.8V67C238.7,67.5,238,67.9,236.7,67.9Z" transform="translate(0 0)"/><path class="cls-1" d="M238.2,35.6H217.7a.79.79,0,0,1-.8-.78V25a.79.79,0,0,1,.78-.8H238.2a.79.79,0,0,1,.8.78V34.8a.79.79,0,0,1-.78.8Z" transform="translate(0 0)"/><path class="cls-1" d="M238.2,51.6H223.4a.79.79,0,0,1-.8-.78V41a.79.79,0,0,1,.78-.8H238.2a.79.79,0,0,1,.8.78V50.8A.86.86,0,0,1,238.2,51.6Z" transform="translate(0 0)"/><path class="cls-1" d="M238,100.6H224.3a.92.92,0,0,1-1-.8V90a.91.91,0,0,1,1-.8H238a.92.92,0,0,1,1,.8v9.8A.92.92,0,0,1,238,100.6Z" transform="translate(0 0)"/><path class="cls-1" d="M217.3,100.6H203.6a.92.92,0,0,1-1-.8V90a.91.91,0,0,1,1-.8h13.7a.92.92,0,0,1,1,.8v9.8A1,1,0,0,1,217.3,100.6Z" transform="translate(0 0)"/><path class="cls-1" d="M197.2,100.6H183.5a.92.92,0,0,1-1-.8V90a.91.91,0,0,1,1-.8h13.7a.92.92,0,0,1,1,.8v9.8A.92.92,0,0,1,197.2,100.6Z" transform="translate(0 0)"/><path class="cls-1" d="M177.2,100.6H163.5a.92.92,0,0,1-1-.8V90a.91.91,0,0,1,1-.8h13.7a.92.92,0,0,1,1,.8v9.8A1,1,0,0,1,177.2,100.6Z" transform="translate(0 0)"/><path class="cls-1" d="M25.2,100.6H11.5a.92.92,0,0,1-1-.8V90a.91.91,0,0,1,1-.8H25.2a.92.92,0,0,1,1,.8v9.8A1,1,0,0,1,25.2,100.6Z" transform="translate(0 0)"/><path class="cls-1" d="M45.8,100.6H32.1a.92.92,0,0,1-1-.8V90a.91.91,0,0,1,1-.8H45.8a.92.92,0,0,1,1,.8v9.8A1,1,0,0,1,45.8,100.6Z" transform="translate(0 0)"/><path class="cls-1" d="M66.2,100.6H52.5a.92.92,0,0,1-1-.8V90a.91.91,0,0,1,1-.8H66.2a.92.92,0,0,1,1,.8v9.8A1,1,0,0,1,66.2,100.6Z" transform="translate(0 0)"/><text class="cls-15" transform="translate(103.38 65.23)">G</text><text class="cls-15" transform="translate(119.21 65.23)">H</text><text class="cls-15" transform="translate(72 65.23)">D</text><text class="cls-15" transform="translate(87.6 65.23)">F</text><polygon points="267.6 80.3 270.1 76 272.6 80.3 267.6 80.3"/><polygon points="272.6 92.6 270.1 96.9 267.6 92.6 272.6 92.6"/><polygon points="255.9 97.4 251.5 94.9 255.9 92.4 255.9 97.4"/><polygon points="284.3 92.4 288.7 94.9 284.3 97.4 284.3 92.4"/><text class="cls-16" transform="translate(45.83 33)">2</text><text class="cls-16" transform="translate(61.78 33)">3</text><text class="cls-16" transform="translate(77.12 33)">4</text><text class="cls-16" transform="translate(93.3 33)">5</text><text class="cls-16" transform="translate(108.83 33)">6</text><text class="cls-16" transform="translate(124.08 33)">7</text><text class="cls-16" transform="translate(29.58 33)">1</text><text class="cls-15" transform="translate(134.55 65.23)">J</text><text class="cls-15" transform="translate(150.21 65.23)">K</text><text class="cls-15" transform="translate(166.13 65.23)">L</text><text class="cls-15" transform="translate(61.78 81.48)">X</text><text class="cls-15" transform="translate(98.22 48.98)">T</text><text class="cls-15" transform="translate(45.83 81.48)">Z</text><text class="cls-15" transform="translate(114.5 49.36)">Y</text><text class="cls-17"></text><text class="cls-15" transform="translate(77.63 81.48)">C</text><text class="cls-15" transform="translate(177.58 48.98)">P</text><text class="cls-15" transform="translate(162 48.98)">O</text><text class="cls-15" transform="translate(146.13 48.98)">I</text><text class="cls-15" transform="translate(130.2 49.36)">U</text></svg>